<svg width="315" height="77" viewBox="0 0 315 77" fill="none" xmlns="http://www.w3.org/2000/svg">
<path d="M147.515 15.0838H137.767C135.481 17.8551 134.015 21.0801 133.496 24.7611L133.971 26.669L135.955 27.3962H139.018C139.148 23.8527 140.485 20.8089 142.857 18.3099C144.237 16.8556 145.746 15.766 147.515 15.0838ZM264.663 29.3042H258.926V55.1548H264.663V29.3042ZM295.676 27.8498H301.455C301.93 26.2592 302.188 24.6236 302.188 22.9431V19.7169C302.188 14.5378 300.377 10.0859 296.926 6.40611C293.432 2.72637 289.248 0.818396 284.289 0.818396H276.87C271.952 0.818396 267.768 2.72637 264.232 6.36112C260.739 9.99587 258.927 14.3566 258.927 19.4907V27.8498H264.664V19.6719C264.664 16.0834 265.872 13.0846 268.244 10.5407C270.617 7.99669 273.506 6.72471 276.871 6.72471H284.29C287.697 6.72471 290.588 7.99669 292.959 10.5407C295.332 13.0396 296.582 16.0834 296.582 19.6719V22.9431C296.582 24.6249 296.279 26.3054 295.676 27.8498ZM310.298 75.6889C309.78 75.5977 309.306 75.5077 308.788 75.3703C307.277 74.8255 305.682 74.1433 304.388 73.1899C301.541 71.282 299.341 68.738 297.702 65.6031C296.581 63.4227 295.804 61.0599 295.459 58.6072C294.38 50.8841 295.329 47.7941 289.592 41.5704C285.97 37.6183 281.398 35.8003 276.221 35.8003H266.214V55.1536H271.951V41.7516H276.265C279.888 41.7516 283.037 43.1148 285.624 45.7949C286.66 46.8857 287.565 48.1115 288.213 49.5209C289.248 51.8374 289.507 54.5188 289.723 57.0166C290.025 59.8791 290.369 62.6505 291.405 65.3307C291.793 66.239 292.225 67.1024 292.699 68.0108C292.915 68.4656 293.174 68.9192 293.475 69.3278C294.899 71.5082 297.831 73.4161 300.032 74.5519C301.972 75.5515 304.216 76.4599 306.33 76.8235C307.279 77.0047 309.349 77.2783 310.082 76.2787C310.168 76.0975 310.255 75.9163 310.298 75.6889ZM266.044 34.2559H284.289C287.308 34.2559 289.852 33.1201 291.966 30.9398C294.08 28.7132 295.201 26.078 295.201 22.9443V19.7181C295.201 16.5832 294.08 13.903 291.966 11.6314C289.852 9.40487 287.308 8.26909 284.289 8.26909H276.87C273.85 8.26909 271.262 9.35988 269.149 11.6314C267.079 13.903 266.044 16.5832 266.044 19.7181V34.2559ZM289.379 19.6719V22.9431C289.379 24.4424 288.904 25.7144 287.913 26.8052C286.921 27.8498 285.713 28.3958 284.29 28.3958H271.782V28.0322C271.782 26.624 271.782 25.2608 271.739 23.8527C271.739 22.4445 271.696 21.0363 271.696 19.6731C271.696 18.1738 272.257 16.9018 273.206 15.8572C274.198 14.7664 275.45 14.2216 276.873 14.2216H284.292C285.716 14.2216 286.923 14.7664 287.915 15.8122C288.904 16.9018 289.379 18.1738 289.379 19.6719ZM302.62 57.6988C301.671 51.0653 302.404 48.7037 298.739 42.4788C297.66 40.6158 296.323 38.9802 294.77 37.5271L294.425 37.2085L294.813 36.9811C297.186 35.5729 298.954 33.5737 300.205 31.0747C300.507 30.4837 300.766 29.894 300.981 29.303H294.985C294.424 30.3026 293.735 31.2109 292.958 32.0293C290.543 34.5283 287.653 35.8003 284.289 35.8003H283.727C284.978 36.3001 286.229 36.9361 287.308 37.6633C290.155 39.6162 292.354 42.1614 293.993 45.2951C295.288 47.8391 296.064 50.0657 296.366 52.927C296.538 54.79 296.625 56.653 296.883 58.5147C297.444 62.6493 299.385 66.284 302.103 69.3278L302.189 69.419C304.001 71.1908 306.503 73.0987 308.875 73.8709C309.436 74.0521 310.126 74.2345 310.729 74.3257C311.85 74.5069 314.74 75.0979 315 73.3711C307.926 72.3715 302.621 66.0116 302.621 58.4697C302.62 58.1986 302.62 57.9712 302.62 57.6988ZM243.873 55.1086H249.61V36.3451H220.798V55.1086H226.535V42.4338H243.874L243.873 55.1086ZM219.374 28.8494H213.724V55.1086H219.374V28.8494ZM243.873 27.3962H249.61V19.8543C249.61 16.7194 248.575 14.0392 246.462 11.7676C244.348 9.54107 241.803 8.40528 238.784 8.40528H231.581C228.605 8.40528 226.103 9.54107 223.99 11.7676C221.877 13.9942 220.798 16.6744 220.798 19.8543V27.3962H226.535V19.8543C226.535 18.3549 227.009 17.083 228.001 16.0384C228.993 14.9938 230.2 14.4478 231.581 14.4478H238.784C240.208 14.4478 241.415 14.9476 242.407 16.0384C243.399 17.083 243.873 18.4011 243.873 19.8543V27.3962ZM251.034 27.3962H256.771V19.8543C256.771 14.6752 254.959 10.2233 251.465 6.58852C247.972 2.90877 243.745 1.0458 238.784 1.0458H231.581C226.664 1.0458 222.48 2.90877 218.986 6.58852C215.493 10.2233 213.724 14.6752 213.724 19.8543V27.3962H219.374V19.8543C219.374 16.3108 220.582 13.267 222.955 10.7681C225.37 8.26909 228.217 6.99711 231.581 6.99711H238.784C242.148 6.99711 245.038 8.26909 247.411 10.7231C249.826 13.267 251.034 16.3108 251.034 19.8543V27.3962ZM256.771 28.8494H251.034V55.1086H256.771V28.8494ZM249.61 34.8007V28.8494H220.798V34.8007H249.61ZM182.322 27.0776H187.886V17.7639C187.886 14.8114 186.808 12.4036 184.522 10.6769C182.193 8.90508 179.518 8.08668 176.628 8.08668H172.358C173.91 9.85845 175.247 11.8126 176.326 13.9018H178.569C179.561 13.9018 180.51 14.2204 181.243 14.9464C181.976 15.7186 182.321 16.6732 182.321 17.7627L182.322 27.0776ZM162.137 0.818396C165.372 2.13537 168.304 4.08955 170.85 6.54231H176.5C179.735 6.54231 182.798 7.4057 185.472 9.40487C188.146 11.449 189.353 14.2666 189.268 17.6727V27.0764H194.918L194.875 17.7627C194.875 12.856 192.935 8.90386 189.397 5.72391C185.86 2.54396 181.762 0.817181 177.061 0.817181L162.137 0.818396ZM194.702 28.8494H189.095V38.1631C189.095 41.1156 190.173 43.5234 192.459 45.2501C194.831 47.0219 197.463 47.8403 200.395 47.8403H212.214V42.0252H198.454C197.419 42.0252 196.514 41.7066 195.781 40.9806C195.005 40.2084 194.702 39.2538 194.702 38.1643V28.8494ZM212.214 55.1086V49.3847H200.524C197.247 49.3847 194.184 48.5213 191.51 46.5221C188.879 44.523 187.671 41.6604 187.714 38.2543V28.8506H182.106L182.149 38.1643C182.149 43.071 184.047 47.0231 187.583 50.2031C191.164 53.383 195.218 55.1098 199.919 55.1098L212.214 55.1086ZM170.979 31.4396L170.505 29.5316L168.607 28.8506H165.458C165.329 32.3942 164.035 35.4379 161.619 37.9819C158.988 40.7082 155.84 42.0252 152.173 42.0252C148.506 42.0252 145.444 40.662 142.856 37.9369C140.483 35.4379 139.147 32.3942 138.975 28.8506H135.869L133.971 29.5316L133.496 31.4396C134.1 35.6641 135.955 39.2088 138.801 42.2526C142.511 46.1148 146.953 48.0677 152.173 48.0677C157.435 48.0677 161.965 46.1597 165.674 42.2526C168.52 39.2076 170.375 35.6641 170.979 31.4396ZM84.5411 8.17788C86.0939 10.0409 87.4309 12.13 88.4665 14.3566C88.7251 13.4482 89.0276 12.5848 89.4155 11.7214C91.2269 7.81429 94.3753 6.08751 98.4739 6.13372H102.313C117.97 6.13372 133.627 6.40611 149.284 6.54231C156.445 6.5873 161.318 7.22329 166.667 12.8122C166.796 12.9934 166.926 13.1308 167.099 13.312L167.185 13.4032C169.859 16.447 171.628 19.9905 172.318 24.0339L173.009 26.669L174.993 27.3962H178.4C178.271 22.4445 177.063 17.8102 174.519 13.5856C173.44 11.7689 172.146 10.0871 170.68 8.58769C163.951 1.4556 158.818 0.728409 149.717 0.728409C134.017 0.683416 118.274 0.501009 102.53 0.501009H98.2591C95.4559 0.501009 92.7382 1.09201 90.2364 2.50018C87.8188 3.81716 85.9207 5.68013 84.5411 8.17788ZM91.3562 25.6694C91.3562 26.2604 91.399 26.8052 91.399 27.3962C91.399 29.123 91.2269 30.8948 90.9244 32.6203C93.8142 34.1647 97.0492 34.7107 100.241 34.7107H109.169C110.593 34.7107 111.629 35.3917 112.188 36.7549C112.75 38.0719 112.75 39.39 112.188 40.707C111.627 42.0702 110.593 42.7512 109.169 42.7512H99.6365C98.6875 42.7062 97.825 42.3426 97.048 41.7066C96.3576 41.1156 95.8831 40.4346 95.5818 39.5712L89.845 40.707C90.2768 43.1598 91.4844 45.069 93.5117 46.4771C95.6684 47.9765 98.1275 48.6575 100.715 48.7037L109.255 48.7949C111.843 48.7949 114.085 47.9777 115.811 45.8874C117.536 43.797 118.227 41.253 118.227 38.4817C118.227 35.8915 117.32 33.6661 115.553 31.8032C113.568 29.7128 110.852 29.0768 108.134 29.0318L99.2913 28.9868C98.6447 28.9868 97.997 28.8956 97.3932 28.8056C95.0218 28.4408 92.9518 27.4412 91.3562 25.6694ZM166.838 15.22C166.493 14.7202 166.062 14.2654 165.673 13.8568C160.453 8.35908 156.227 8.08668 149.239 8.08668L103.218 7.54189H97.5237C94.0728 7.81429 91.7003 9.58606 90.3633 12.9484C89.1557 16.0834 89.285 19.1721 90.7513 22.2159C92.3468 25.5782 94.9353 27.3038 98.4716 27.5312L121.288 27.4862C120.986 27.1676 120.727 26.8502 120.469 26.5778C117.018 22.8519 112.446 21.5349 107.615 21.5349H98.6886C97.3078 21.5349 96.2733 20.8989 95.6695 19.5357C95.1084 18.2187 95.1523 17.128 95.6695 15.856C96.2733 14.4928 97.309 13.8118 98.6886 13.8118H103.002C118.314 13.8118 133.626 13.8118 148.895 13.8568C151.656 13.9018 154.503 14.1754 157.09 15.22H157.262H157.305C158.944 15.9472 160.368 16.9918 161.618 18.3087C163.991 20.8077 165.328 23.8515 165.457 27.395H168.52L170.505 26.6678L170.979 24.8048C170.505 21.4425 169.254 18.3987 167.227 15.7636L166.795 15.2188L166.838 15.22ZM88.4653 41.0706L83.031 42.0702C83.8507 46.1135 85.9207 49.2935 89.0691 51.7925C92.3907 54.3826 96.1002 55.7446 100.24 55.7446H107.746C112.62 55.7446 117.235 54.4276 120.686 50.6105C123.749 47.2031 125.344 43.2048 125.258 38.4804C125.215 34.9369 124.222 31.7107 122.281 28.8494H114.043C114.949 29.3042 115.811 29.9852 116.587 30.7574C118.572 32.8927 119.52 35.4817 119.52 38.4804C119.52 41.5692 118.873 44.523 117.018 46.9307C115.077 49.4297 112.23 50.2469 109.254 50.2469L100.756 50.1557C97.8239 50.1557 95.0634 49.4285 92.5616 47.7479C90.2779 46.1585 88.8971 43.9332 88.4653 41.0706ZM178.398 28.8494H174.904L173.006 29.5304L172.36 31.9831C171.669 36.4351 169.686 40.161 166.71 43.341C162.699 47.5655 157.867 49.6109 152.217 49.6109C146.567 49.6109 141.779 47.5667 137.811 43.341C135.008 40.3884 133.11 36.8899 132.333 32.8015L131.47 29.5304L129.572 28.8494H126.079C126.251 36.1639 128.796 42.3876 133.756 47.6129C138.845 52.9732 144.971 55.6546 152.217 55.6546C159.42 55.6546 165.589 52.9744 170.72 47.6129C175.68 42.3876 178.225 36.1639 178.398 28.8494ZM6.94445 8.31408V27.1676H34.765C34.8943 27.1676 35.0675 27.1676 35.1968 27.1676V21.2613C35.0248 21.3063 34.8516 21.3063 34.6796 21.3063H12.1213V21.1713H11.8627V13.8118H35.1979V8.31408C35.0259 8.31408 34.8527 8.31408 34.6807 8.31408H6.94445ZM82.6858 26.8502C82.5565 21.6261 80.7011 17.1729 77.1648 13.4482C73.4554 9.49607 68.9262 7.5881 63.6638 7.5881C58.4443 7.5881 54.0016 9.54107 50.2922 13.4482C46.7547 17.1742 44.9005 21.6261 44.7285 26.8502H50.4653C50.6374 23.3067 51.9755 20.2629 54.3468 17.719C56.9353 15.0388 60.0398 13.6306 63.6638 13.6306C67.3306 13.6306 70.479 14.9476 73.1102 17.674C75.5254 20.2179 76.8196 23.2617 76.9489 26.8514L82.6858 26.8502ZM89.8461 26.8502C89.6741 19.4907 87.1284 13.2658 82.1685 8.08668C77.0794 2.68016 70.8681 0 63.665 0C56.4192 0 50.2933 2.72637 45.2042 8.08668C40.2444 13.2658 37.6986 19.4895 37.5266 26.8502H43.35C43.4793 21.1713 45.464 16.3558 49.2589 12.3124C53.227 8.13289 58.0148 6.04251 63.665 6.04251C69.3152 6.04251 74.1458 8.13289 78.1577 12.3124C81.9538 16.3558 83.9373 21.1713 84.1105 26.8502H89.8461ZM82.6858 28.2584H76.9489C76.8196 31.8019 75.4827 34.8457 73.1102 37.3897C69.7459 40.9332 64.9581 41.7054 60.3862 41.7054H12.2934L12.2506 41.6604H11.8627V34.3009H35.1979V28.8494H6.94445V47.5217H60.7741C67.7185 47.5217 71.9453 47.2493 77.1648 41.7516C80.7023 38.0269 82.5565 33.5287 82.6858 28.2584ZM82.4272 46.7495C81.7368 45.2951 81.2622 43.7058 80.9609 42.1152L80.6584 40.2984L87.5163 39.0714C89.0264 35.6641 89.7595 32.0293 89.845 28.2584H84.1081C83.9361 33.9373 81.9515 38.7528 78.1554 42.7962C72.8504 48.3839 67.9333 49.0661 60.7729 49.0661H5.47821V28.8494H0V54.8812H61.2059C70.307 54.8812 75.44 54.109 82.1685 47.0219C82.2551 46.9307 82.3406 46.8407 82.4272 46.7495ZM0 27.3962H5.47821V6.76971H34.6796C34.8516 6.76971 35.0248 6.76971 35.1968 6.76971V0.954593C35.0675 0.954593 34.8943 0.954593 34.765 0.954593H0V27.3962ZM57.3671 39.7986C56.246 39.1626 55.2532 38.3442 54.348 37.3909C51.9755 34.8469 50.6385 31.8032 50.5092 28.2596H44.7297C44.859 32.5303 46.1105 36.4375 48.6551 39.7986H57.3671ZM46.8863 39.7986C44.6004 36.3463 43.4793 32.4841 43.3489 28.2596H37.5255C37.612 32.3029 38.4745 36.1651 40.1566 39.7986H46.8863ZM135.998 15.0838H129.14C127.156 18.8997 126.164 23.0343 126.077 27.3962H129.484L131.469 26.669L132.375 23.1255C133.022 20.1717 134.229 17.4466 135.998 15.0838Z" fill="white"/>
</svg>
